<svg width="228" height="117" viewBox="0 0 228 117" fill="none" xmlns="http://www.w3.org/2000/svg">
<path d="M30.496 98.36C26.144 98.36 22.4747 97.6773 19.488 96.312C16.544 94.9467 14.304 93.0907 12.768 90.744C11.2747 88.3547 10.528 85.624 10.528 82.552H22.048C22.048 83.6613 22.3467 84.6853 22.944 85.624C23.584 86.52 24.5227 87.224 25.76 87.736C26.9973 88.248 28.576 88.504 30.496 88.504C32.16 88.504 33.568 88.2907 34.72 87.864C35.9147 87.4373 36.8107 86.84 37.408 86.072C38.048 85.304 38.368 84.3867 38.368 83.32C38.368 81.9547 37.792 80.9093 36.64 80.184C35.488 79.416 33.5467 78.9253 30.816 78.712L27.808 78.456C22.9867 78.0293 19.1467 76.5147 16.288 73.912C13.4293 71.3093 12 67.8533 12 63.544C12 60.472 12.704 57.848 14.112 55.672C15.5627 53.496 17.5893 51.832 20.192 50.68C22.7947 49.528 25.8667 48.952 29.408 48.952C33.248 48.952 36.4907 49.592 39.136 50.872C41.824 52.152 43.872 53.9653 45.28 56.312C46.688 58.616 47.392 61.304 47.392 64.376H35.872C35.872 63.352 35.616 62.4133 35.104 61.56C34.592 60.7067 33.8453 60.0453 32.864 59.576C31.9253 59.064 30.7733 58.808 29.408 58.808C28.128 58.808 27.04 59.0213 26.144 59.448C25.2907 59.832 24.6293 60.3867 24.16 61.112C23.7333 61.8373 23.52 62.648 23.52 63.544C23.52 64.7387 23.9253 65.7627 24.736 66.616C25.5467 67.4693 26.9547 67.9813 28.96 68.152L31.968 68.408C35.4667 68.7067 38.56 69.4747 41.248 70.712C43.936 71.9067 46.048 73.5493 47.584 75.64C49.12 77.7307 49.888 80.2907 49.888 83.32C49.888 86.3493 49.0987 88.9947 47.52 91.256C45.984 93.5173 43.7653 95.2667 40.864 96.504C38.0053 97.7413 34.5493 98.36 30.496 98.36ZM71.6595 98.36C68.5875 98.36 65.9208 97.8693 63.6595 96.888C61.3982 95.864 59.4995 94.4987 57.9635 92.792C56.4702 91.0853 55.3395 89.144 54.5715 86.968C53.8462 84.792 53.4835 82.5307 53.4835 80.184V78.904C53.4835 76.4293 53.8675 74.0827 54.6355 71.864C55.4462 69.6453 56.6195 67.6827 58.1555 65.976C59.6915 64.2693 61.5902 62.9253 63.8515 61.944C66.1128 60.9627 68.7155 60.472 71.6595 60.472C74.9022 60.472 77.7608 61.112 80.2355 62.392C82.7102 63.672 84.6728 65.4427 86.1235 67.704C87.6168 69.9227 88.4488 72.4827 88.6195 75.384H77.2275C77.0995 73.976 76.5662 72.7813 75.6275 71.8C74.7315 70.8187 73.4088 70.328 71.6595 70.328C70.1662 70.328 68.9288 70.712 67.9475 71.48C67.0088 72.248 66.3048 73.3147 65.8355 74.68C65.3662 76.0453 65.1315 77.6667 65.1315 79.544C65.1315 81.2933 65.3235 82.8507 65.7075 84.216C66.1342 85.5813 66.8168 86.648 67.7555 87.416C68.7368 88.1413 70.0382 88.504 71.6595 88.504C72.8542 88.504 73.8568 88.2907 74.6675 87.864C75.4782 87.4373 76.1182 86.84 76.5875 86.072C77.0568 85.2613 77.3555 84.3227 77.4835 83.256H88.8755C88.7048 86.2427 87.8515 88.8667 86.3155 91.128C84.8222 93.3893 82.8168 95.16 80.2995 96.44C77.7822 97.72 74.9022 98.36 71.6595 98.36ZM112.381 98.36C109.267 98.36 106.493 97.8907 104.061 96.952C101.629 96.0133 99.5602 94.712 97.8535 93.048C96.1895 91.384 94.9095 89.464 94.0135 87.288C93.1602 85.112 92.7335 82.7867 92.7335 80.312V78.776C92.7335 76.216 93.1815 73.8267 94.0775 71.608C95.0162 69.3893 96.3388 67.448 98.0455 65.784C99.7522 64.12 101.821 62.8187 104.253 61.88C106.685 60.9413 109.395 60.472 112.381 60.472C115.411 60.472 118.12 60.9413 120.509 61.88C122.941 62.8187 125.011 64.12 126.717 65.784C128.424 67.448 129.725 69.3893 130.621 71.608C131.56 73.8267 132.029 76.216 132.029 78.776V80.312C132.029 82.7867 131.581 85.112 130.685 87.288C129.832 89.464 128.552 91.384 126.845 93.048C125.181 94.712 123.133 96.0133 120.701 96.952C118.269 97.8907 115.496 98.36 112.381 98.36ZM112.381 88.632C114.173 88.632 115.645 88.248 116.797 87.48C117.992 86.712 118.888 85.6453 119.485 84.28C120.083 82.872 120.381 81.2933 120.381 79.544C120.381 77.7093 120.061 76.1093 119.421 74.744C118.824 73.336 117.928 72.2267 116.733 71.416C115.539 70.6053 114.088 70.2 112.381 70.2C110.675 70.2 109.224 70.6053 108.029 71.416C106.835 72.2267 105.917 73.336 105.277 74.744C104.68 76.1093 104.381 77.7093 104.381 79.544C104.381 81.2933 104.68 82.872 105.277 84.28C105.875 85.6453 106.771 86.712 107.965 87.48C109.16 88.248 110.632 88.632 112.381 88.632ZM138.406 97.08V61.752H147.622V77.112H147.494C147.494 72.1627 148.518 68.28 150.566 65.464C152.657 62.648 155.644 61.24 159.526 61.24H160.934V71.224H158.246C155.644 71.224 153.617 71.928 152.166 73.336C150.758 74.744 150.054 76.7707 150.054 79.416V97.08H138.406ZM181.982 98.36C178.996 98.36 176.35 97.848 174.046 96.824C171.742 95.8 169.801 94.4133 168.222 92.664C166.644 90.9147 165.428 88.952 164.574 86.776C163.764 84.6 163.358 82.36 163.358 80.056V78.776C163.358 76.3867 163.764 74.104 164.574 71.928C165.428 69.7093 166.622 67.7467 168.158 66.04C169.737 64.3333 171.657 62.9893 173.918 62.008C176.18 60.984 178.74 60.472 181.598 60.472C185.396 60.472 188.617 61.3253 191.262 63.032C193.908 64.7387 195.934 67 197.342 69.816C198.75 72.5893 199.454 75.6187 199.454 78.904V82.616H168.222V76.344H192.734L188.702 79.16C188.702 77.1547 188.425 75.4693 187.87 74.104C187.358 72.696 186.569 71.6293 185.502 70.904C184.478 70.1787 183.177 69.816 181.598 69.816C180.062 69.816 178.718 70.1787 177.566 70.904C176.457 71.5867 175.604 72.6533 175.006 74.104C174.409 75.512 174.11 77.304 174.11 79.48C174.11 81.4427 174.388 83.1493 174.942 84.6C175.497 86.008 176.35 87.096 177.502 87.864C178.654 88.632 180.148 89.016 181.982 89.016C183.604 89.016 184.926 88.7387 185.95 88.184C187.017 87.6293 187.764 86.8827 188.19 85.944H198.814C198.302 88.3333 197.278 90.4667 195.742 92.344C194.249 94.2213 192.329 95.6933 189.982 96.76C187.678 97.8267 185.012 98.36 181.982 98.36Z" fill="#F01D06"/>
<g filter="url(#filter0_d_10_44)">
<path d="M41.24 65.96C40.0933 65.2133 39.4133 64.4667 39.2 63.72C39.0133 62.9733 39.28 62.3733 40 61.92C40.16 61.8133 40.4667 61.8 40.92 61.88C41.4 61.96 41.76 62.12 42 62.36C42.5333 62.84 43.1333 63.1333 43.8 63.24C44.4933 63.3733 45.3333 63.3067 46.32 63.04C47.44 62.6933 48.2933 62.2667 48.88 61.76C49.4933 61.2267 50.1733 60.5067 50.92 59.6C51.48 58.88 51.8667 58.1733 52.08 57.48C52.32 56.7867 52.4267 56.16 52.4 55.6C52.4 55.0133 52.2667 54.5733 52 54.28C51.3333 53.3467 50.5067 52.7067 49.52 52.36C48.5333 51.9867 47.24 52.0133 45.64 52.44C45.4533 52.4667 45.1733 52.52 44.8 52.6C44.4267 52.68 44.0933 52.76 43.8 52.84C43.5067 52.8933 43.3467 52.92 43.32 52.92C43.1333 52.9733 42.9867 53 42.88 53C42.7733 53 42.64 53.1333 42.48 53.4C42.3467 53.64 42.1333 54.16 41.84 54.96C41.5467 55.7333 41.1067 56.9333 40.52 58.56C39.96 60.1867 39.48 61.3467 39.08 62.04C38.7067 62.7067 38.3733 63.0133 38.08 62.96C37.7867 62.88 37.4533 62.5867 37.08 62.08C36.8667 61.7067 36.6267 61.2933 36.36 60.84C36.12 60.3867 36.1333 59.92 36.4 59.44C36.5333 59.2 36.64 58.9867 36.72 58.8C36.8 58.5867 36.9067 58.2267 37.04 57.72C37.1733 57.32 37.4267 56.6267 37.8 55.64C38.2 54.6267 38.6667 53.4533 39.2 52.12C39.7333 50.76 40.2933 49.36 40.88 47.92C41.4667 46.48 42.0267 45.12 42.56 43.84C43.12 42.56 43.5867 41.48 43.96 40.6C44.3333 39.7733 44.56 39.1733 44.64 38.8C44.72 38.4267 44.6933 38.2267 44.56 38.2C44.56 38.0667 44.52 37.9467 44.44 37.84C44.36 37.7067 44.3333 37.5867 44.36 37.48C44.36 37.3733 44.5867 37.2267 45.04 37.04C45.52 36.8533 46.0267 36.68 46.56 36.52C47.0933 36.36 47.48 36.3067 47.72 36.36C47.8533 36.36 48.0133 36.36 48.2 36.36C48.3867 36.3333 48.48 36.2667 48.48 36.16C48.56 36.16 48.8133 36.1333 49.24 36.08C49.6667 36.0267 50.1333 36.0267 50.64 36.08C52.4267 36.24 53.8933 36.76 55.04 37.64C56.1867 38.4933 56.7467 39.8667 56.72 41.76C56.6933 42.2133 56.5067 42.8 56.16 43.52C55.8133 44.24 55.3733 44.96 54.84 45.68C54.3333 46.4 53.7867 47.0267 53.2 47.56C52.8533 47.8533 52.48 48.16 52.08 48.48C51.7067 48.7733 51.3733 49.0267 51.08 49.24C50.8133 49.4267 50.68 49.52 50.68 49.52C50.68 49.52 50.7867 49.56 51 49.64C51.2133 49.72 51.44 49.8 51.68 49.88C52.9067 50.3333 53.8667 50.9067 54.56 51.6C55.28 52.2933 55.7867 53.2533 56.08 54.48C56.1867 54.88 56.1867 55.3733 56.08 55.96C56 56.5467 55.88 57.1333 55.72 57.72C55.56 58.28 55.3867 58.76 55.2 59.16C55.0133 59.3467 54.8667 59.5467 54.76 59.76C54.6533 59.9467 54.6 60.04 54.6 60.04C54.6 60.0933 54.4933 60.3067 54.28 60.68C54.0667 61.0267 53.8133 61.4133 53.52 61.84C53.2267 62.2667 52.9467 62.64 52.68 62.96C52.4133 63.1733 52.0267 63.4667 51.52 63.84C51.04 64.24 50.5067 64.6267 49.92 65C49.36 65.3733 48.8267 65.6533 48.32 65.84C47.5733 66.16 46.7333 66.3733 45.8 66.48C44.8933 66.6133 44.0267 66.6267 43.2 66.52C42.3733 66.44 41.72 66.2533 41.24 65.96ZM44.12 49.36C44.12 49.36 44.3333 49.32 44.76 49.24C45.2133 49.1333 45.7067 49.0267 46.24 48.92C46.7733 48.7867 47.1733 48.6667 47.44 48.56C47.5733 48.48 47.76 48.3733 48 48.24C48.2667 48.1067 48.5333 47.9067 48.8 47.64C49.1733 47.2933 49.5733 46.9067 50 46.48C50.4267 46.0267 50.84 45.5467 51.24 45.04C51.6667 44.5333 52.0267 43.9867 52.32 43.4C52.9333 42.44 53.2667 41.7467 53.32 41.32C53.3733 40.8933 53.2267 40.5067 52.88 40.16C52.64 39.8667 52.3067 39.6533 51.88 39.52C51.4533 39.36 50.9867 39.28 50.48 39.28C50 39.2533 49.5333 39.3067 49.08 39.44C48.7333 39.5467 48.4667 39.68 48.28 39.84C48.0933 39.9733 48 40.1867 48 40.48C48 40.72 47.92 40.9733 47.76 41.24C47.6267 41.48 47.4933 41.6667 47.36 41.8C47.3333 41.9867 47.24 42.1733 47.08 42.36C46.9467 42.52 46.88 42.6 46.88 42.6C46.88 42.7067 46.7067 43.04 46.36 43.6C46.04 44.1333 45.6933 44.9067 45.32 45.92C44.84 47.0667 44.52 47.8933 44.36 48.4C44.2 48.9067 44.12 49.2267 44.12 49.36ZM59.0175 62.24C58.9108 62.0267 58.6708 61.8133 58.2975 61.6C57.9508 61.3867 57.7775 61.2267 57.7775 61.12C57.7775 61.0133 57.7108 60.8533 57.5775 60.64C57.4708 60.4 57.3642 60.2267 57.2575 60.12C57.1242 59.96 57.1642 59.5733 57.3775 58.96C57.5908 58.32 57.9108 57.5467 58.3375 56.64C58.7642 55.7333 59.2308 54.8133 59.7375 53.88C59.9508 53.6667 60.1642 53.3867 60.3775 53.04C60.5908 52.6933 60.7508 52.4667 60.8575 52.36C60.8575 52.2533 60.8975 52.16 60.9775 52.08C61.0575 51.9733 61.1508 51.92 61.2575 51.92L61.5775 51.28C61.6308 51.1733 61.7908 50.96 62.0575 50.64C62.3508 50.32 62.6975 49.9733 63.0975 49.6C63.4975 49.2 63.8975 48.8267 64.2975 48.48C64.7242 48.1333 65.0708 47.88 65.3375 47.72C65.8975 47.3467 66.4708 47.1733 67.0575 47.2C67.6708 47.2267 68.1908 47.4133 68.6175 47.76C68.6975 47.84 68.8708 48 69.1375 48.24C69.4308 48.48 69.7508 48.7467 70.0975 49.04C70.4708 49.3333 70.7908 49.6 71.0575 49.84L72.5375 51.16L71.8575 53.16C71.5108 54.2267 71.4175 55.16 71.5775 55.96C71.7375 56.76 71.9908 57.4533 72.3375 58.04C72.4708 58.3333 72.6442 58.56 72.8575 58.72C73.0975 58.88 73.4042 58.9867 73.7775 59.04C73.9908 59.0667 74.1908 59.1467 74.3775 59.28C74.5642 59.4133 74.6575 59.6267 74.6575 59.92C74.6575 60.56 74.5375 61.0267 74.2975 61.32C74.0842 61.5867 73.8442 61.7467 73.5775 61.8C72.6975 61.9067 71.8575 61.8133 71.0575 61.52C70.2575 61.2267 69.5375 60.4667 68.8975 59.24C68.7908 59.08 68.6442 58.7867 68.4575 58.36C68.2975 57.9067 68.2042 57.6133 68.1775 57.48C68.0708 57.6133 67.9242 57.7867 67.7375 58C67.5775 58.1867 67.4175 58.36 67.2575 58.52C65.3642 60.44 63.7375 61.6933 62.3775 62.28C61.0442 62.84 59.9242 62.8267 59.0175 62.24ZM61.2175 58.92C61.4042 58.9467 61.6975 58.8533 62.0975 58.64C62.4975 58.4 63.0308 58.0133 63.6975 57.48C64.6042 56.7067 65.3508 56.0667 65.9375 55.56C66.5242 55.0533 67.0975 54.4 67.6575 53.6L68.5375 52.16C68.2708 51.5467 68.0308 51.1467 67.8175 50.96C67.6042 50.7733 67.3908 50.68 67.1775 50.68C66.8308 50.68 66.4175 50.9067 65.9375 51.36C65.4575 51.7867 64.9108 52.4267 64.2975 53.28C63.7108 54.1067 63.0442 55.1467 62.2975 56.4C61.9508 56.9867 61.6842 57.56 61.4975 58.12C61.3108 58.6533 61.2175 58.92 61.2175 58.92ZM78.0291 63.32C77.1224 62.9467 76.4557 62.56 76.0291 62.16C75.6291 61.7333 75.4691 61.36 75.5491 61.04C75.6024 60.88 75.6957 60.7333 75.8291 60.6C75.9624 60.4667 76.2557 60.4133 76.7091 60.44C77.1891 60.44 77.9224 60.56 78.9091 60.8C79.2024 60.8 79.4957 60.7867 79.7891 60.76C80.0824 60.7333 80.3491 60.6933 80.5891 60.64C80.8557 60.5867 81.0691 60.52 81.2291 60.44C81.3624 60.3867 81.4024 60.32 81.3491 60.24C81.2957 60.1333 81.2024 60.0267 81.0691 59.92C80.9624 59.7867 80.8424 59.7067 80.7091 59.68C80.5757 59.6267 80.4557 59.6 80.3491 59.6C80.2957 59.4667 80.1757 59.3333 79.9891 59.2C79.8291 59.0667 79.6291 58.92 79.3891 58.76C78.8024 58.28 78.2691 57.8533 77.7891 57.48C77.3091 57.1067 77.1224 56.8267 77.2291 56.64C77.2291 56.5333 77.2291 56.48 77.2291 56.48C77.2291 56.4533 77.2291 56.44 77.2291 56.44C77.0424 56.44 76.8691 56.1867 76.7091 55.68C76.5491 55.1467 76.4691 54.6667 76.4691 54.24C76.4691 53.7067 76.5757 53.1733 76.7891 52.64C77.0291 52.1067 77.3224 51.6 77.6691 51.12C78.0424 50.64 78.4157 50.2133 78.7891 49.84C79.2957 49.36 79.8291 48.8933 80.3891 48.44C80.9757 47.96 81.6024 47.5333 82.2691 47.16C82.9624 46.7867 83.7224 46.4933 84.5491 46.28C84.9224 46.2 85.3491 46.16 85.8291 46.16C86.3091 46.16 86.6557 46.2267 86.8691 46.36C87.0824 46.2267 87.3491 46.2667 87.6691 46.48C87.9891 46.6667 88.3091 46.9333 88.6291 47.28C88.9491 47.6267 89.1891 47.9733 89.3491 48.32C89.3491 48.64 89.3357 49.04 89.3091 49.52C89.3091 49.9733 89.2824 50.3733 89.2291 50.72C89.1757 51.0667 89.0557 51.24 88.8691 51.24C88.8691 51.24 88.8291 51.2533 88.7491 51.28C88.6957 51.28 88.6691 51.3467 88.6691 51.48C88.6691 51.7467 88.4691 52.0533 88.0691 52.4C87.5624 52.7467 87.0824 53.0267 86.6291 53.24C86.1757 53.4533 85.8291 53.4667 85.5891 53.28C85.4291 53.1733 85.2824 53.0667 85.1491 52.96C85.0157 52.8533 84.8957 52.72 84.7891 52.56C84.7891 52.56 84.7491 52.5067 84.6691 52.4C84.6157 52.2667 84.5891 52.1467 84.5891 52.04C84.5891 51.9333 84.6291 51.84 84.7091 51.76C84.7891 51.6533 84.8291 51.6 84.8291 51.6C85.2024 51.2533 85.4824 50.9333 85.6691 50.64C85.8824 50.3467 86.0291 50.0933 86.1091 49.88C86.1891 49.64 86.2291 49.4533 86.2291 49.32C86.2291 49.16 86.1891 49.0667 86.1091 49.04C86.0557 48.9867 85.9224 48.96 85.7091 48.96C85.5757 48.96 85.2824 49.0667 84.8291 49.28C84.4024 49.4933 83.9491 49.76 83.4691 50.08C82.9891 50.3733 82.6157 50.64 82.3491 50.88C82.2424 51.0667 82.1624 51.1867 82.1091 51.24C82.0824 51.2933 82.0157 51.32 81.9091 51.32C81.9091 51.2133 81.8424 51.2267 81.7091 51.36C81.5757 51.4933 81.4157 51.68 81.2291 51.92C81.0424 52.16 80.8557 52.4133 80.6691 52.68C80.4824 52.9467 80.3357 53.16 80.2291 53.32C80.2024 53.56 80.1357 53.7867 80.0291 54C79.9491 54.1867 79.9224 54.3867 79.9491 54.6C79.9757 54.8667 80.1091 55.12 80.3491 55.36C80.5891 55.6 80.9357 55.9067 81.3891 56.28C82.3224 56.9733 83.0157 57.52 83.4691 57.92C83.9491 58.32 84.2824 58.64 84.4691 58.88C84.6557 59.12 84.7757 59.36 84.8291 59.6C85.2824 60.4267 85.3357 61.1467 84.9891 61.76C84.6424 62.3467 84.1091 62.8 83.3891 63.12C83.1224 63.2533 82.6557 63.3733 81.9891 63.48C81.3224 63.6133 80.6157 63.6667 79.8691 63.64C79.1491 63.64 78.5357 63.5333 78.0291 63.32ZM90.9334 62.8C90.5334 62.6667 90.1734 62.4533 89.8534 62.16C89.5601 61.8667 89.4401 61.3867 89.4934 60.72C89.5468 60.32 89.6268 59.9067 89.7334 59.48C89.8401 59.0267 89.9734 58.5867 90.1334 58.16C90.2134 57.68 90.3068 57.2 90.4134 56.72C90.5468 56.24 90.7601 55.7867 91.0534 55.36C91.4001 54.3733 91.7601 53.4 92.1334 52.44C92.5068 51.4533 92.8268 50.4267 93.0934 49.36C93.4934 48.4 93.8534 47.5467 94.1734 46.8C94.5201 46.0533 94.9334 45.0933 95.4134 43.92C95.6801 43.3067 95.9068 42.6267 96.0934 41.88C96.3068 41.1067 96.6268 40.4267 97.0534 39.84C97.2401 39.6 97.3734 39.4 97.4534 39.24C97.5601 39.0533 97.6668 38.88 97.7734 38.72C97.9601 38.3467 98.2401 38.1733 98.6134 38.2C99.0134 38.2267 99.2801 38.3333 99.4134 38.52C99.8668 38.7067 100.187 39.0533 100.373 39.56C100.56 40.04 100.627 40.3867 100.573 40.6C100.573 40.8933 100.467 41.2133 100.253 41.56C100.147 41.6667 100.04 41.8267 99.9334 42.04C99.8268 42.2267 99.6668 42.48 99.4534 42.8C99.3468 43.1467 99.2401 43.4933 99.1334 43.84C99.0268 44.1867 98.9068 44.5067 98.7734 44.8C98.6401 45.0933 98.4934 45.3867 98.3334 45.68C98.1734 45.9733 98.0668 46.2133 98.0134 46.4C97.7734 47.0133 97.5068 47.6133 97.2134 48.2C96.9468 48.76 96.7068 49.36 96.4934 50C96.2801 50.6133 96.0534 51.2667 95.8134 51.96C95.5734 52.6267 95.2668 53.2667 94.8934 53.88C94.7068 54.1467 94.6001 54.5067 94.5734 54.96C94.5734 55.4133 94.5201 55.8533 94.4134 56.28C94.2268 56.76 94.0534 57.2 93.8934 57.6C93.7601 58 93.6934 58.2533 93.6934 58.36C93.5068 58.9467 93.3601 59.5333 93.2534 60.12C93.1468 60.68 92.9734 61.1733 92.7334 61.6C92.7334 62.24 92.5601 62.64 92.2134 62.8C91.8668 62.96 91.4401 62.96 90.9334 62.8ZM100.093 63.16C99.6668 63.1067 99.3468 63.0267 99.1334 62.92C98.9201 62.7867 98.5201 62.5067 97.9334 62.08C97.6134 61.76 97.2134 61.2667 96.7334 60.6C96.2534 59.9333 95.7734 59.2267 95.2934 58.48C94.8134 57.7067 94.3868 57.0533 94.0134 56.52L96.2134 53.72C96.5601 54.1467 96.8401 54.5467 97.0534 54.92C97.2668 55.2933 97.4401 55.5467 97.5734 55.68C98.1868 56.5867 98.6668 57.32 99.0134 57.88C99.3601 58.44 99.6534 58.8933 99.8934 59.24C100.16 59.5867 100.453 59.8933 100.773 60.16C101.093 60.4267 101.507 60.7067 102.013 61C102.093 61.0533 102.173 61.1867 102.253 61.4C102.333 61.5867 102.36 61.7867 102.333 62C102.28 62.32 102.08 62.5867 101.733 62.8C101.413 62.9867 100.867 63.1067 100.093 63.16ZM94.2934 55.76C94.1334 55.3067 94.0934 54.8 94.1734 54.24C94.2801 53.6533 94.5068 53.2667 94.8534 53.08C94.9601 52.8933 95.0668 52.7733 95.1734 52.72C95.3068 52.64 95.3868 52.5467 95.4134 52.44C95.4668 52.3333 95.6001 52.1867 95.8134 52C96.0534 51.8133 96.2668 51.64 96.4534 51.48C96.8801 51.2133 97.3468 50.8933 97.8534 50.52C98.3868 50.12 98.8934 49.72 99.3734 49.32C99.8801 48.92 100.293 48.5733 100.613 48.28C100.96 47.9867 101.173 47.8 101.253 47.72C101.333 47.6133 101.493 47.5467 101.733 47.52C102 47.4933 102.253 47.5333 102.493 47.64C102.813 47.72 103.067 47.8933 103.253 48.16C103.467 48.4267 103.573 48.8 103.573 49.28C103.653 49.5733 103.48 49.9333 103.053 50.36C102.653 50.76 102.147 51.16 101.533 51.56C101.32 51.6933 101.027 51.8933 100.653 52.16C100.307 52.4267 100 52.68 99.7334 52.92C99.5468 53.0267 99.2668 53.2133 98.8934 53.48C98.5468 53.72 98.2401 53.96 97.9734 54.2C97.7601 54.3333 97.5068 54.5733 97.2134 54.92C96.9468 55.24 96.6401 55.48 96.2934 55.64C95.4401 56.44 94.9201 56.8267 94.7334 56.8C94.5734 56.7733 94.4268 56.4267 94.2934 55.76ZM108.894 63.8C107.428 63.8 106.294 63.3733 105.494 62.52C104.721 61.6667 104.334 60.36 104.334 58.6C104.334 57.64 104.508 56.5867 104.854 55.44C105.228 54.2933 105.708 53.1733 106.294 52.08C106.908 50.9867 107.574 50.04 108.294 49.24C109.014 48.4133 109.734 47.84 110.454 47.52C110.721 47.3867 111.001 47.2933 111.294 47.24C111.614 47.16 111.921 47.12 112.214 47.12C112.534 47.12 112.881 47.1467 113.254 47.2C113.654 47.2267 114.028 47.3067 114.374 47.44C114.988 47.6267 115.521 47.9867 115.974 48.52C116.454 49.0533 116.694 49.8267 116.694 50.84C116.694 51.1067 116.668 51.4 116.614 51.72C116.561 52.0133 116.468 52.3067 116.334 52.6C115.988 53.48 115.454 54.32 114.734 55.12C114.041 55.92 113.308 56.48 112.534 56.8C112.321 56.9067 112.108 56.9867 111.894 57.04C111.708 57.0667 111.508 57.08 111.294 57.08C110.734 57.08 110.228 57 109.774 56.84C109.348 56.68 108.948 56.4667 108.574 56.2L108.254 55.92L108.054 56.32C107.868 56.8267 107.734 57.2533 107.654 57.6C107.601 57.9467 107.574 58.2 107.574 58.36C107.574 58.68 107.588 59.0133 107.614 59.36C107.641 59.68 107.721 59.9467 107.854 60.16C107.961 60.2933 108.094 60.4 108.254 60.48C108.441 60.56 108.668 60.6 108.934 60.6C109.094 60.6 109.241 60.6 109.374 60.6C109.534 60.5733 109.668 60.5467 109.774 60.52C110.254 60.4133 110.641 60.24 110.934 60C111.254 59.7333 111.588 59.5067 111.934 59.32L112.094 59.24L112.054 59.12C112.508 58.88 112.814 58.7333 112.974 58.68C113.134 58.6 113.254 58.5333 113.334 58.48C113.441 58.3733 113.561 58.32 113.694 58.32C114.068 58.2667 114.428 58.3733 114.774 58.64C115.148 58.88 115.334 59.1867 115.334 59.56C115.334 59.72 115.214 59.9733 114.974 60.32C114.761 60.6667 114.481 61.0133 114.134 61.36C113.814 61.68 113.481 61.9333 113.134 62.12C113.054 62.1467 112.974 62.1867 112.894 62.24C112.814 62.2667 112.734 62.3067 112.654 62.36H112.694C112.454 62.68 112.214 62.84 111.974 62.84H111.654C111.548 63.0267 111.201 63.2267 110.614 63.44C110.028 63.68 109.454 63.8 108.894 63.8ZM110.974 54.16C111.214 54.16 111.428 54.12 111.614 54.04C111.828 53.96 112.028 53.8667 112.214 53.76C112.854 53.3067 113.268 52.72 113.454 52C113.641 51.28 113.574 50.7333 113.254 50.36C113.201 50.28 113.134 50.2267 113.054 50.2C112.974 50.1467 112.881 50.12 112.774 50.12C112.481 50.12 112.148 50.2133 111.774 50.4C111.428 50.5867 111.081 50.8533 110.734 51.2C110.388 51.5467 110.068 51.96 109.774 52.44L109.254 53.28C109.308 53.2533 109.348 53.24 109.374 53.24C109.428 53.2133 109.468 53.2 109.494 53.2C109.734 53.2 109.894 53.28 109.974 53.44C110.054 53.6 110.148 53.76 110.254 53.92C110.388 54.08 110.628 54.16 110.974 54.16ZM121.934 65.48C120.627 65.4533 119.787 65.08 119.414 64.36C119.067 63.6667 118.974 62.7867 119.134 61.72C119.294 61.2133 119.387 60.76 119.414 60.36C119.467 59.9333 119.587 59.6667 119.774 59.56C119.774 59.56 119.787 59.52 119.814 59.44C119.867 59.36 119.854 59.28 119.774 59.2C119.774 58.8533 119.894 58.3733 120.134 57.76C120.187 57.6 120.254 57.4133 120.334 57.2C120.44 56.96 120.494 56.84 120.494 56.84C120.36 56.6267 120.36 56.4533 120.494 56.32C120.627 56.1867 120.76 56.0667 120.894 55.96C121.054 55.8267 121.067 55.68 120.934 55.52C120.88 55.4133 120.947 55.1733 121.134 54.8C121.32 54.4 121.534 53.9867 121.774 53.56C122.014 53.1333 122.174 52.8 122.254 52.56C122.254 52.5067 122.32 52.32 122.454 52C122.587 51.68 122.747 51.3067 122.934 50.88C123.12 50.4533 123.294 50.0667 123.454 49.72C123.64 49.3733 123.76 49.1467 123.814 49.04C124.08 48.9067 123.974 48.8133 123.494 48.76C123.014 48.7067 122.507 48.6933 121.974 48.72C121.147 48.6933 120.48 48.6533 119.974 48.6C119.494 48.5467 119.094 48.4267 118.774 48.24C118.454 47.8667 118.414 47.4267 118.654 46.92C118.894 46.3867 119.28 46.1067 119.814 46.08C120.16 46.0533 120.427 46.04 120.614 46.04C120.827 46.04 121.094 46.0267 121.414 46C121.76 45.9467 122.294 45.88 123.014 45.8L125.054 45.64L125.174 44.96C125.387 44.6133 125.534 44.3867 125.614 44.28C125.694 44.1733 125.747 44.0667 125.774 43.96C125.8 43.8267 125.84 43.6 125.894 43.28C125.894 43.28 126.014 43.0667 126.254 42.64C126.494 42.1867 126.64 41.72 126.694 41.24C127.014 40.7067 127.294 40.2267 127.534 39.8C127.774 39.3467 127.92 39.0667 127.974 38.96C128.427 38.2933 128.867 37.9333 129.294 37.88C129.747 37.8267 130.174 37.9333 130.574 38.2C130.814 38.3333 131.04 38.5067 131.254 38.72C131.467 38.9067 131.6 39.16 131.654 39.48C131.707 39.7733 131.587 40.16 131.294 40.64C131.24 40.7467 131.16 40.9467 131.054 41.24C130.947 41.5067 130.867 41.7333 130.814 41.92C130.654 42.1067 130.454 42.4133 130.214 42.84C130 43.24 129.854 43.6533 129.774 44.08C129.56 44.5333 129.427 44.8133 129.374 44.92C129.32 45.0267 129.24 45.08 129.134 45.08C129.187 45.3467 129.347 45.48 129.614 45.48C129.88 45.4533 130.32 45.4267 130.934 45.4C131.44 45.3467 131.787 45.2933 131.974 45.24C132.187 45.16 132.427 45.1867 132.694 45.32C132.827 45.5067 132.894 45.7867 132.894 46.16C132.92 46.5067 132.88 46.8533 132.774 47.2C132.667 47.52 132.52 47.72 132.334 47.8C132.2 47.8 131.92 47.88 131.494 48.04C131.094 48.1733 130.587 48.2533 129.974 48.28L127.854 48.48L127.174 49.84C126.987 50.1867 126.827 50.5067 126.694 50.8C126.56 51.0667 126.467 51.2267 126.414 51.28C126.414 51.44 126.32 51.68 126.134 52C125.974 52.32 125.8 52.6667 125.614 53.04C125.454 53.4933 125.267 53.9067 125.054 54.28C124.867 54.6533 124.774 54.84 124.774 54.84C124.667 54.84 124.614 54.92 124.614 55.08C124.747 55.4 124.707 55.64 124.494 55.8C124.36 55.88 124.24 56 124.134 56.16C124.054 56.2933 124.014 56.36 124.014 56.36C124.12 56.4667 124.134 56.6 124.054 56.76C124 56.92 123.92 57.0933 123.814 57.28C123.814 57.4933 123.747 57.8 123.614 58.2C123.507 58.6 123.387 58.9733 123.254 59.32C123.28 59.8 123.307 60.1067 123.334 60.24C123.36 60.3733 123.427 60.4267 123.534 60.4C123.667 60.4267 123.854 60.4267 124.094 60.4C124.334 60.3733 124.507 60.36 124.614 60.36C125.014 60.1733 124.827 61.1067 124.054 63.16C123.627 63.8267 123.2 64.3733 122.774 64.8C122.347 65.2533 122.067 65.48 121.934 65.48ZM136.616 62.84C136.083 62.7867 135.656 62.6533 135.336 62.44C135.043 62.2 134.816 61.9067 134.656 61.56C134.443 61.32 134.309 61.1333 134.256 61C134.229 60.8667 134.229 60.7467 134.256 60.64C134.389 60.64 134.509 60.64 134.616 60.64C134.723 60.6133 134.789 60.56 134.816 60.48C134.816 60.4 134.856 60.3467 134.936 60.32C135.043 60.2933 135.149 60.2933 135.256 60.32C135.763 60.3467 136.376 60.1733 137.096 59.8C137.843 59.4267 138.656 58.9067 139.536 58.24C140.416 57.5467 141.296 56.8 142.176 56C142.869 55.0933 143.349 54.4267 143.616 54C143.909 53.5733 144.056 53.2533 144.056 53.04C144.083 52.8 144.029 52.56 143.896 52.32C143.789 52.1067 143.536 52 143.136 52C142.736 52 142.123 52.2667 141.296 52.8C140.149 53.52 139.229 54.1867 138.536 54.8C137.843 55.4133 137.203 56.1067 136.616 56.88C136.403 57.1467 136.163 57.44 135.896 57.76C135.656 58.0533 135.443 58.3067 135.256 58.52C135.096 58.7333 135.016 58.84 135.016 58.84C135.016 58.9467 134.856 59.08 134.536 59.24C134.243 59.4 133.989 59.48 133.776 59.48C133.669 59.4267 133.523 59.3333 133.336 59.2C133.176 59.04 133.069 58.84 133.016 58.6C132.776 58.4133 132.576 58.2533 132.416 58.12C132.256 57.96 132.176 57.7067 132.176 57.36C132.176 57.1467 132.203 56.88 132.256 56.56C132.336 56.24 132.443 55.8267 132.576 55.32C132.736 54.6267 132.909 53.9067 133.096 53.16C133.283 52.3867 133.456 51.7333 133.616 51.2C133.803 50.64 133.936 50.3333 134.016 50.28C134.016 50.28 134.069 50.16 134.176 49.92C134.283 49.68 134.336 49.4 134.336 49.08C134.389 48.76 134.469 48.48 134.576 48.24C134.709 48 134.776 47.8267 134.776 47.72C134.883 47.64 135.043 47.32 135.256 46.76C135.469 46.2 135.736 45.4667 136.056 44.56C136.056 44.48 136.149 44.2267 136.336 43.8C136.523 43.3467 136.749 42.8267 137.016 42.24C137.283 41.6267 137.549 41 137.816 40.36C138.109 39.6933 138.349 39.1067 138.536 38.6C138.856 38.1467 139.123 37.6933 139.336 37.24C139.576 36.76 139.789 36.48 139.976 36.4C140.109 36.3733 140.336 36.4267 140.656 36.56C141.003 36.6933 141.349 36.8667 141.696 37.08C142.043 37.2933 142.283 37.5067 142.416 37.72C142.496 37.8533 142.536 37.9867 142.536 38.12C142.563 38.2533 142.509 38.48 142.376 38.8C142.243 39.0933 142.016 39.5867 141.696 40.28C141.376 40.9467 140.923 41.8933 140.336 43.12C139.589 44.72 139.003 46.0533 138.576 47.12C138.176 48.1867 137.843 49.1067 137.576 49.88C137.336 50.6533 137.083 51.3867 136.816 52.08L136.616 52.96L137.656 51.8C137.923 51.5333 138.203 51.28 138.496 51.04C138.789 50.8 139.109 50.56 139.456 50.32C139.669 50.16 139.949 50 140.296 49.84C140.669 49.6533 141.029 49.4933 141.376 49.36C141.723 49.2267 141.976 49.1467 142.136 49.12C142.216 49.0933 142.483 49.04 142.936 48.96C143.416 48.8533 143.883 48.8 144.336 48.8C144.923 48.8 145.429 49.0133 145.856 49.44C146.309 49.84 146.709 50.3333 147.056 50.92C147.349 51.48 147.456 52.2 147.376 53.08C147.296 53.9333 147.069 54.6667 146.696 55.28C146.563 55.3867 146.429 55.5333 146.296 55.72C146.163 55.88 146.096 56.0133 146.096 56.12C146.069 56.3067 145.829 56.6933 145.376 57.28C144.923 57.84 144.469 58.3733 144.016 58.88C143.536 59.3867 142.949 59.8933 142.256 60.4C141.563 60.88 140.869 61.32 140.176 61.72C139.509 62.0933 138.936 62.36 138.456 62.52C138.243 62.5467 137.936 62.6 137.536 62.68C137.136 62.7333 136.829 62.7867 136.616 62.84ZM151.589 62.36C151.269 62.44 150.909 62.3467 150.509 62.08C150.109 61.8133 149.749 61.48 149.429 61.08C149.109 60.68 148.909 60.32 148.829 60C148.723 59.44 148.749 58.76 148.909 57.96C149.096 57.1333 149.403 56.2667 149.829 55.36C150.256 54.4267 150.789 53.52 151.429 52.64C152.069 51.7333 152.789 50.92 153.589 50.2C154.389 49.48 155.256 48.92 156.189 48.52C156.589 48.3067 156.869 48.1733 157.029 48.12C157.189 48.04 157.349 48.04 157.509 48.12C157.669 48.1733 157.949 48.3067 158.349 48.52C158.723 48.6267 159.096 48.76 159.469 48.92C159.869 49.0533 160.216 49.32 160.509 49.72C160.723 50.12 160.883 50.52 160.989 50.92C161.096 51.32 161.189 51.7733 161.269 52.28C161.483 52.9467 161.563 53.3867 161.509 53.6C161.456 53.7867 161.376 53.9333 161.269 54.04C161.056 54.3067 161.003 54.44 161.109 54.44C161.109 54.44 161.096 54.4933 161.069 54.6C161.069 54.68 161.016 54.8133 160.909 55C160.723 55.5867 160.576 56.1467 160.469 56.68C160.389 57.1867 160.403 57.64 160.509 58.04C160.723 58.6267 161.003 58.9733 161.349 59.08C161.723 59.1867 162.203 58.9467 162.789 58.36C163.083 58.1467 163.416 58.0133 163.789 57.96C164.163 57.88 164.349 57.9467 164.349 58.16C164.349 58.16 164.389 58.2 164.469 58.28C164.549 58.3333 164.643 58.36 164.749 58.36C164.883 58.36 164.936 58.4933 164.909 58.76C164.883 59 164.829 59.28 164.749 59.6C164.669 59.92 164.563 60.1867 164.429 60.4C164.029 60.8 163.829 61.0667 163.829 61.2C163.829 61.2 163.776 61.2533 163.669 61.36C163.589 61.44 163.443 61.5733 163.229 61.76C162.749 62.0533 162.136 62.2 161.389 62.2C160.669 62.2 160.109 62.0533 159.709 61.76C159.309 61.4667 158.909 61.1067 158.509 60.68C158.136 60.2533 157.896 59.8533 157.789 59.48L157.589 59.08L156.429 59.84C156.136 60.1333 155.923 60.36 155.789 60.52C155.656 60.6533 155.536 60.7733 155.429 60.88C155.349 60.9867 155.256 61.08 155.149 61.16C155.069 61.24 154.976 61.28 154.869 61.28C154.763 61.28 154.669 61.28 154.589 61.28C154.509 61.28 154.469 61.28 154.469 61.28C154.469 61.3867 154.283 61.5333 153.909 61.72C153.536 61.88 153.123 62.0267 152.669 62.16C152.216 62.2933 151.856 62.36 151.589 62.36ZM152.429 59C152.589 59 152.829 58.9067 153.149 58.72C153.496 58.5067 153.869 58.2533 154.269 57.96C154.669 57.6667 155.029 57.3733 155.349 57.08C155.696 56.7867 155.949 56.5467 156.109 56.36C156.216 56.2533 156.336 56.08 156.469 55.84C156.629 55.6 156.803 55.3867 156.989 55.2C157.603 54.5067 157.989 53.96 158.149 53.56C158.309 53.1333 158.243 52.68 157.949 52.2C157.843 51.9067 157.709 51.7467 157.549 51.72C157.389 51.6933 157.056 51.7867 156.549 52C156.229 52.1867 155.883 52.4933 155.509 52.92C155.136 53.3467 154.749 53.8267 154.349 54.36C153.976 54.8933 153.629 55.44 153.309 56C152.989 56.56 152.723 57.0667 152.509 57.52C152.323 57.9733 152.229 58.3333 152.229 58.6C152.229 58.7067 152.256 58.8 152.309 58.88C152.389 58.96 152.429 59 152.429 59ZM167.027 62.12C166.761 61.96 166.467 61.7333 166.147 61.44C165.827 61.12 165.667 60.8133 165.667 60.52C165.667 60.12 165.721 59.6267 165.827 59.04C165.934 58.4267 166.041 57.9067 166.147 57.48C166.201 57 166.267 56.52 166.347 56.04C166.454 55.5333 166.641 55.0667 166.907 54.64C167.201 53.6267 167.507 52.6267 167.827 51.64C168.147 50.6267 168.427 49.5867 168.667 48.52C169.014 47.5333 169.321 46.6667 169.587 45.92C169.881 45.1467 170.241 44.1733 170.667 43C170.907 42.3333 171.107 41.6267 171.267 40.88C171.454 40.1067 171.734 39.4133 172.107 38.8C172.267 38.56 172.387 38.36 172.467 38.2C172.574 38.0133 172.681 37.84 172.787 37.68C172.814 37.5733 172.947 37.48 173.187 37.4C173.454 37.32 173.721 37.28 173.987 37.28C174.281 37.2533 174.481 37.3067 174.587 37.44C174.667 37.4133 174.801 37.52 174.987 37.76C175.174 37.9733 175.347 38.2267 175.507 38.52C175.694 38.7867 175.774 39 175.747 39.16C175.747 39.2667 175.721 39.4133 175.667 39.6C175.641 39.7867 175.574 39.96 175.467 40.12C175.361 40.2267 175.254 40.3867 175.147 40.6C175.067 40.7867 174.934 41.0533 174.747 41.4C174.641 41.7467 174.547 42.1067 174.467 42.48C174.387 42.8267 174.281 43.1467 174.147 43.44C174.041 43.76 173.907 44.0667 173.747 44.36C173.614 44.6533 173.521 44.8933 173.467 45.08C173.281 45.6933 173.054 46.2933 172.787 46.88C172.547 47.4667 172.334 48.0933 172.147 48.76C171.961 49.4 171.774 50.0667 171.587 50.76C171.401 51.4267 171.134 52.0667 170.787 52.68C170.601 52.9733 170.467 53.3467 170.387 53.8C170.307 54.2533 170.227 54.7067 170.147 55.16C169.987 55.64 169.841 56.0933 169.707 56.52C169.601 56.92 169.547 57.1733 169.547 57.28C169.387 57.8667 169.267 58.4533 169.187 59.04C169.134 59.6 169.001 60.0933 168.787 60.52C168.761 60.7867 168.667 61.08 168.507 61.4C168.347 61.72 168.134 61.96 167.867 62.12C167.627 62.28 167.347 62.28 167.027 62.12ZM173.377 64.28C173.03 64.1467 172.75 63.9333 172.537 63.64C172.323 63.3733 172.203 62.9733 172.177 62.44C172.15 62.0933 172.163 61.5867 172.217 60.92C172.27 60.2267 172.363 59.5333 172.497 58.84C172.497 58.7867 172.497 58.7333 172.497 58.68C172.523 58.6 172.537 58.5467 172.537 58.52C172.563 58.4133 172.59 58.2533 172.617 58.04C172.643 57.8 172.67 57.6133 172.697 57.48C172.75 57.32 172.777 57.3067 172.777 57.44L173.017 56.36C173.123 55.88 173.243 55.3867 173.377 54.88C173.51 54.3733 173.63 53.9333 173.737 53.56C173.87 53.16 173.95 52.9333 173.977 52.88C173.977 52.88 174.017 52.7333 174.097 52.44C174.203 52.12 174.31 51.8 174.417 51.48C174.843 50.1467 175.243 49.04 175.617 48.16C176.017 47.28 176.363 46.64 176.657 46.24C176.683 46.16 176.723 46.0667 176.777 45.96C176.83 45.8267 176.87 45.72 176.897 45.64C176.897 45.3467 176.91 45.1333 176.937 45C176.99 44.8667 177.057 44.7467 177.137 44.64C177.19 44.5333 177.27 44.4 177.377 44.24C177.483 44.0533 177.603 43.8267 177.737 43.56L177.897 43.12C178.057 42.7733 178.257 42.3733 178.497 41.92C178.737 41.44 178.91 41.08 179.017 40.84C179.097 40.6 179.257 40.32 179.497 40C179.737 39.6533 180.003 39.4267 180.297 39.32L180.257 39.28C180.39 39.04 180.643 38.8533 181.017 38.72C181.39 38.56 181.697 38.48 181.937 38.48C182.31 38.48 182.59 38.5867 182.777 38.8C182.99 39.0133 183.097 39.3067 183.097 39.68C183.097 40.08 183.083 40.3733 183.057 40.56C183.057 40.72 182.963 40.9067 182.777 41.12H182.817C182.87 41.0667 182.857 41.1467 182.777 41.36C182.697 41.5733 182.63 41.72 182.577 41.8C182.523 41.9333 182.457 42.08 182.377 42.24C182.323 42.4 182.257 42.52 182.177 42.6C182.097 42.7067 181.883 43.08 181.537 43.72C181.19 44.3333 180.803 45.0667 180.377 45.92C179.95 46.7467 179.537 47.56 179.137 48.36C178.763 49.1333 178.497 49.7333 178.337 50.16L178.137 50.76C178.11 50.8667 178.097 50.9467 178.097 51C178.017 51.1867 177.937 51.3733 177.857 51.56C177.777 51.7467 177.697 51.9067 177.617 52.04L176.977 54.52L176.817 55.36L176.457 56.28L176.217 57.04C176.163 57.2 176.123 57.3733 176.097 57.56C176.07 57.7467 176.017 57.88 175.937 57.96C175.937 57.9867 175.923 58.0267 175.897 58.08C175.897 58.1067 175.897 58.1333 175.897 58.16C175.79 58.5867 175.603 59.1867 175.337 59.96C175.097 60.7333 174.95 61.5867 174.897 62.52C174.897 62.5467 174.883 62.5733 174.857 62.6C174.857 62.6267 174.857 62.6533 174.857 62.68C174.777 63.24 174.603 63.6667 174.337 63.96C174.097 64.28 173.777 64.3867 173.377 64.28Z" fill="white"/>
</g>
<defs>
<filter id="filter0_d_10_44" x="0" y="0" width="227.097" height="110.68" filterUnits="userSpaceOnUse" color-interpolation-filters="sRGB">
<feFlood flood-opacity="0" result="BackgroundImageFix"/>
<feColorMatrix in="SourceAlpha" type="matrix" values="0 0 0 0 0 0 0 0 0 0 0 0 0 0 0 0 0 0 127 0" result="hardAlpha"/>
<feOffset dx="4" dy="4"/>
<feGaussianBlur stdDeviation="20"/>
<feComposite in2="hardAlpha" operator="out"/>
<feColorMatrix type="matrix" values="0 0 0 0 0.172549 0 0 0 0 0.172549 0 0 0 0 0.172549 0 0 0 1 0"/>
<feBlend mode="normal" in2="BackgroundImageFix" result="effect1_dropShadow_10_44"/>
<feBlend mode="normal" in="SourceGraphic" in2="effect1_dropShadow_10_44" result="shape"/>
</filter>
</defs>
</svg>
